<mxfile host="app.diagrams.net" modified="2022-03-23T07:20:21.124Z" agent="5.0 (Windows NT 10.0; Win64; x64) AppleWebKit/537.36 (KHTML, like Gecko) Chrome/97.0.4692.71 Safari/537.36" etag="0J9k6rLLDDb7iaLF6UVq" version="16.6.1" type="github">
  <diagram id="gybayWOibYsTSD4ibpMv" name="Page-1">
    <mxGraphModel dx="3231" dy="1162" grid="1" gridSize="10" guides="1" tooltips="1" connect="1" arrows="1" fold="1" page="1" pageScale="1" pageWidth="1169" pageHeight="827" math="0" shadow="0">
      <root>
        <mxCell id="0" />
        <mxCell id="1" parent="0" />
        <mxCell id="n6PQA_FdskBKnV7hcxYY-3" value="" style="edgeStyle=orthogonalEdgeStyle;rounded=0;orthogonalLoop=1;jettySize=auto;html=1;" edge="1" parent="1" source="n6PQA_FdskBKnV7hcxYY-1" target="n6PQA_FdskBKnV7hcxYY-2">
          <mxGeometry relative="1" as="geometry" />
        </mxCell>
        <mxCell id="n6PQA_FdskBKnV7hcxYY-24" style="edgeStyle=orthogonalEdgeStyle;rounded=0;orthogonalLoop=1;jettySize=auto;html=1;" edge="1" parent="1" source="n6PQA_FdskBKnV7hcxYY-1" target="n6PQA_FdskBKnV7hcxYY-20">
          <mxGeometry relative="1" as="geometry" />
        </mxCell>
        <mxCell id="n6PQA_FdskBKnV7hcxYY-1" value="Controller" style="rounded=1;whiteSpace=wrap;html=1;" vertex="1" parent="1">
          <mxGeometry x="-100" y="40" width="120" height="60" as="geometry" />
        </mxCell>
        <mxCell id="n6PQA_FdskBKnV7hcxYY-4" style="edgeStyle=orthogonalEdgeStyle;rounded=0;orthogonalLoop=1;jettySize=auto;html=1;entryX=0.5;entryY=0;entryDx=0;entryDy=0;" edge="1" parent="1" source="n6PQA_FdskBKnV7hcxYY-2" target="n6PQA_FdskBKnV7hcxYY-5">
          <mxGeometry relative="1" as="geometry">
            <mxPoint x="20" y="360" as="targetPoint" />
          </mxGeometry>
        </mxCell>
        <mxCell id="n6PQA_FdskBKnV7hcxYY-2" value="ServiceA" style="rounded=1;whiteSpace=wrap;html=1;" vertex="1" parent="1">
          <mxGeometry x="-40" y="220" width="120" height="60" as="geometry" />
        </mxCell>
        <mxCell id="n6PQA_FdskBKnV7hcxYY-7" value="" style="edgeStyle=orthogonalEdgeStyle;rounded=0;orthogonalLoop=1;jettySize=auto;html=1;" edge="1" parent="1" source="n6PQA_FdskBKnV7hcxYY-5" target="n6PQA_FdskBKnV7hcxYY-6">
          <mxGeometry relative="1" as="geometry" />
        </mxCell>
        <mxCell id="n6PQA_FdskBKnV7hcxYY-5" value="&lt;span style=&quot;color: rgb(187 , 181 , 41) ; font-family: &amp;#34;verdana&amp;#34; , &amp;#34;arial&amp;#34; , &amp;#34;helvetica&amp;#34; , sans-serif ; font-size: 13px ; text-align: left ; background-color: rgb(254 , 254 , 242)&quot;&gt;EntityA&lt;/span&gt;" style="rounded=1;whiteSpace=wrap;html=1;" vertex="1" parent="1">
          <mxGeometry x="-40" y="354" width="120" height="60" as="geometry" />
        </mxCell>
        <mxCell id="n6PQA_FdskBKnV7hcxYY-6" value="&lt;span style=&quot;color: rgb(187 , 181 , 41) ; font-family: &amp;#34;verdana&amp;#34; , &amp;#34;arial&amp;#34; , &amp;#34;helvetica&amp;#34; , sans-serif ; font-size: 13px ; text-align: left ; background-color: rgb(254 , 254 , 242)&quot;&gt;ModelA&lt;/span&gt;" style="rounded=1;whiteSpace=wrap;html=1;" vertex="1" parent="1">
          <mxGeometry x="-40" y="494" width="120" height="60" as="geometry" />
        </mxCell>
        <mxCell id="n6PQA_FdskBKnV7hcxYY-8" value="" style="edgeStyle=orthogonalEdgeStyle;rounded=0;orthogonalLoop=1;jettySize=auto;html=1;" edge="1" parent="1" source="n6PQA_FdskBKnV7hcxYY-9" target="n6PQA_FdskBKnV7hcxYY-11">
          <mxGeometry relative="1" as="geometry" />
        </mxCell>
        <mxCell id="n6PQA_FdskBKnV7hcxYY-15" style="edgeStyle=orthogonalEdgeStyle;rounded=0;orthogonalLoop=1;jettySize=auto;html=1;entryX=0.5;entryY=0;entryDx=0;entryDy=0;exitX=0.5;exitY=1;exitDx=0;exitDy=0;" edge="1" parent="1" source="n6PQA_FdskBKnV7hcxYY-9" target="n6PQA_FdskBKnV7hcxYY-16">
          <mxGeometry relative="1" as="geometry">
            <mxPoint x="460" y="230" as="targetPoint" />
            <Array as="points">
              <mxPoint x="460" y="185" />
              <mxPoint x="550" y="185" />
            </Array>
          </mxGeometry>
        </mxCell>
        <mxCell id="n6PQA_FdskBKnV7hcxYY-9" value="Controller" style="rounded=1;whiteSpace=wrap;html=1;" vertex="1" parent="1">
          <mxGeometry x="400" y="80" width="120" height="60" as="geometry" />
        </mxCell>
        <mxCell id="n6PQA_FdskBKnV7hcxYY-10" style="edgeStyle=orthogonalEdgeStyle;rounded=0;orthogonalLoop=1;jettySize=auto;html=1;entryX=0.5;entryY=0;entryDx=0;entryDy=0;" edge="1" parent="1" source="n6PQA_FdskBKnV7hcxYY-11" target="n6PQA_FdskBKnV7hcxYY-13">
          <mxGeometry relative="1" as="geometry">
            <mxPoint x="350" y="370" as="targetPoint" />
          </mxGeometry>
        </mxCell>
        <mxCell id="n6PQA_FdskBKnV7hcxYY-11" value="BizzA" style="rounded=1;whiteSpace=wrap;html=1;" vertex="1" parent="1">
          <mxGeometry x="290" y="230" width="120" height="60" as="geometry" />
        </mxCell>
        <mxCell id="n6PQA_FdskBKnV7hcxYY-13" value="&lt;span style=&quot;color: rgb(187 , 181 , 41) ; font-family: &amp;#34;verdana&amp;#34; , &amp;#34;arial&amp;#34; , &amp;#34;helvetica&amp;#34; , sans-serif ; font-size: 13px ; text-align: left ; background-color: rgb(254 , 254 , 242)&quot;&gt;ModelA&lt;/span&gt;" style="rounded=1;whiteSpace=wrap;html=1;" vertex="1" parent="1">
          <mxGeometry x="390" y="400" width="120" height="60" as="geometry" />
        </mxCell>
        <mxCell id="n6PQA_FdskBKnV7hcxYY-17" style="edgeStyle=orthogonalEdgeStyle;rounded=0;orthogonalLoop=1;jettySize=auto;html=1;" edge="1" parent="1" source="n6PQA_FdskBKnV7hcxYY-16" target="n6PQA_FdskBKnV7hcxYY-13">
          <mxGeometry relative="1" as="geometry" />
        </mxCell>
        <mxCell id="n6PQA_FdskBKnV7hcxYY-18" style="edgeStyle=orthogonalEdgeStyle;rounded=0;orthogonalLoop=1;jettySize=auto;html=1;entryX=1;entryY=0.5;entryDx=0;entryDy=0;" edge="1" parent="1" source="n6PQA_FdskBKnV7hcxYY-16" target="n6PQA_FdskBKnV7hcxYY-11">
          <mxGeometry relative="1" as="geometry" />
        </mxCell>
        <mxCell id="n6PQA_FdskBKnV7hcxYY-16" value="ResourceA" style="rounded=1;whiteSpace=wrap;html=1;" vertex="1" parent="1">
          <mxGeometry x="490" y="230" width="120" height="60" as="geometry" />
        </mxCell>
        <mxCell id="n6PQA_FdskBKnV7hcxYY-19" style="edgeStyle=orthogonalEdgeStyle;rounded=0;orthogonalLoop=1;jettySize=auto;html=1;entryX=0.5;entryY=0;entryDx=0;entryDy=0;" edge="1" parent="1" source="n6PQA_FdskBKnV7hcxYY-20" target="n6PQA_FdskBKnV7hcxYY-22">
          <mxGeometry relative="1" as="geometry">
            <mxPoint x="-130" y="357" as="targetPoint" />
          </mxGeometry>
        </mxCell>
        <mxCell id="n6PQA_FdskBKnV7hcxYY-20" value="ServiceB" style="rounded=1;whiteSpace=wrap;html=1;" vertex="1" parent="1">
          <mxGeometry x="-190" y="217" width="120" height="60" as="geometry" />
        </mxCell>
        <mxCell id="n6PQA_FdskBKnV7hcxYY-21" value="" style="edgeStyle=orthogonalEdgeStyle;rounded=0;orthogonalLoop=1;jettySize=auto;html=1;" edge="1" parent="1" source="n6PQA_FdskBKnV7hcxYY-22" target="n6PQA_FdskBKnV7hcxYY-23">
          <mxGeometry relative="1" as="geometry" />
        </mxCell>
        <mxCell id="n6PQA_FdskBKnV7hcxYY-22" value="&lt;span style=&quot;color: rgb(187 , 181 , 41) ; font-family: &amp;#34;verdana&amp;#34; , &amp;#34;arial&amp;#34; , &amp;#34;helvetica&amp;#34; , sans-serif ; font-size: 13px ; text-align: left ; background-color: rgb(254 , 254 , 242)&quot;&gt;EntityA&lt;/span&gt;" style="rounded=1;whiteSpace=wrap;html=1;" vertex="1" parent="1">
          <mxGeometry x="-190" y="351" width="120" height="60" as="geometry" />
        </mxCell>
        <mxCell id="n6PQA_FdskBKnV7hcxYY-23" value="&lt;span style=&quot;color: rgb(187 , 181 , 41) ; font-family: &amp;#34;verdana&amp;#34; , &amp;#34;arial&amp;#34; , &amp;#34;helvetica&amp;#34; , sans-serif ; font-size: 13px ; text-align: left ; background-color: rgb(254 , 254 , 242)&quot;&gt;ModelA&lt;/span&gt;" style="rounded=1;whiteSpace=wrap;html=1;" vertex="1" parent="1">
          <mxGeometry x="-190" y="491" width="120" height="60" as="geometry" />
        </mxCell>
      </root>
    </mxGraphModel>
  </diagram>
</mxfile>
